Coordinates
version=1
nRows=19
nColumns=36
inDegrees=yes

Units are S.I. units (second, meters, Newtons, ...)
If the header above contains a line with 'inDegrees', this indicates whether rotational values are in degrees (yes) or radians (no).

endheader
time	pelvis_tilt	pelvis_list	pelvis_rotation	pelvis_tx	pelvis_ty	pelvis_tz	hip_flexion_r	hip_adduction_r	hip_rotation_r	knee_angle_r	knee_angle_r_beta	ankle_angle_r	subtalar_angle_r	mtp_angle_r	hip_flexion_l	hip_adduction_l	hip_rotation_l	knee_angle_l	knee_angle_l_beta	ankle_angle_l	subtalar_angle_l	mtp_angle_l	lumbar_extension	lumbar_bending	lumbar_rotation	arm_flex_r	arm_add_r	arm_rot_r	elbow_flex_r	pro_sup_r	arm_flex_l	arm_add_l	arm_rot_l	elbow_flex_l	pro_sup_l
      0.00000000	     -5.78710800	     -2.89706755	      1.95400781	      0.71523562	      0.88916375	      0.30814555	      8.19971842	     -0.84200751	      0.77228322	      4.14468418	      0.07233839	      2.03739421	    -12.59918086	     -6.48179107	      6.86492085	     -3.99335599	     -1.57205824	      3.40013611	      0.05934357	      5.48323641	     -7.95759848	     -6.48179107	      7.31826915	      1.61777010	      3.06509633	     43.05103495	      5.89777455	     58.85472997	    124.44575529	    102.93447568	     35.86670076	      5.25829734	     65.20267108	    124.57844449	    103.53204198
      0.01666670	     -6.77890340	     -2.85498165	      1.99365048	      0.71656962	      0.88801959	      0.30782507	      8.85358563	     -0.82453282	      0.85391152	      3.36299822	      0.05869539	      4.17023759	    -10.82608091	     -6.71704238	      7.79455705	     -3.63755755	     -1.86926428	      2.97404083	      0.05190680	      5.76942085	     -8.10715582	     -6.71704238	      8.51103568	      1.65426817	      2.48514531	     44.27521478	      5.66056384	     62.43472537	    126.91719544	    102.59440663	     36.05568298	      3.81076022	     67.83534388	    127.52729354	    100.55748882
      0.03333330	     -7.21252743	     -1.99008746	      1.54885692	      0.71622887	      0.89342378	      0.30905989	      8.81498407	     -1.66643397	      0.36646807	      2.38237672	      0.04158032	      3.78664307	    -10.05048059	     -6.72156102	      7.89306266	     -2.71528956	     -2.62748577	      2.58283093	      0.04507890	      5.24845406	     -7.81511703	     -6.72156102	      8.86620617	      0.57089256	      3.20156886	     43.46099195	      5.50526265	     63.71799147	    127.49861260	    102.73748219	     35.77526454	      2.96676939	     68.29511008	    128.52817670	    100.44442122
      0.05000000	     -7.06514066	     -1.50358050	      1.16653060	      0.71648993	      0.89043853	      0.30967022	      8.54428422	     -2.19854131	     -0.04724972	      2.01227254	      0.03512078	      4.68682965	     -8.05268163	     -6.90647394	      7.39666408	     -2.22104658	     -3.54367361	      2.01944457	      0.03524596	      5.28449896	     -6.51930081	     -6.90647394	      8.60050386	      0.15650243	      3.72223751	     43.59136041	      5.44047637	     65.76331108	    127.19869547	     97.81160952	     36.16307251	      2.93243310	     69.05752656	    129.00916112	     94.28236672
      0.06666670	     -7.01966330	     -1.17137210	      1.00687258	      0.71645614	      0.88821364	      0.30987821	      8.33635350	     -2.54587965	     -0.22137665	      1.66434474	      0.02904830	      4.94071163	     -7.37478518	     -7.19490188	      7.17456110	     -1.86284533	     -3.76867685	      1.61411763	      0.02817167	      5.10031557	     -6.38580851	     -7.19490188	      8.65877769	     -0.11370268	      3.90667616	     43.07936829	      5.60755709	     65.86729592	    126.75139612	    100.61201530	     36.24847940	      3.05466601	     69.16110266	    128.99556693	     91.40530957
      0.08333330	     -6.86167352	     -0.90915692	      0.95525227	      0.71710952	      0.88363258	      0.30990271	      8.07078554	     -2.80152371	     -0.29673525	      1.51424911	      0.02642863	      5.46993242	     -6.75579113	     -7.19873414	      6.94782336	     -1.56735033	     -3.76681543	      1.44372428	      0.02519774	      5.27841170	     -6.37752025	     -7.19873414	      8.85341086	     -0.26894446	      4.11324382	     43.28233870	      5.84274944	     65.79574718	    126.26122686	     99.28469787	     36.70158956	      3.52238302	     68.84247779	    129.01254817	     90.43901708
      0.10000000	     -6.84492197	     -0.74425722	      1.00950070	      0.71628089	      0.88873405	      0.31007568	      7.98782650	     -2.94507163	     -0.14385488	      1.37572642	      0.02401096	      5.57572852	     -6.75019509	     -7.19985969	      6.94592903	     -1.39935456	     -3.65740195	      1.35311222	      0.02361626	      5.20887972	     -6.36717420	     -7.19985969	      9.01752930	     -0.41470866	      4.17404478	     43.33813915	      5.88739808	     65.81713956	    126.04542124	     99.25442516	     36.77476757	      3.65263173	     68.80428500	    128.97556342	     90.39589406
      0.11666670	     -6.65177617	     -0.56736465	      1.10636438	      0.71136898	      0.88809531	      0.30784715	      7.89583826	     -3.17115831	     -0.01580316	      1.37415563	      0.02398354	      5.38837184	     -6.91405559	     -7.21314030	      6.87603010	     -1.13838711	     -3.28780678	      1.28765387	      0.02247380	      4.83287149	     -7.01530898	     -7.21314030	      8.66149412	     -0.51711853	      4.17983034	     43.63692927	      5.66636417	     65.30320871	    125.39655075	     98.77306346	     37.60152248	      3.82542272	     68.64699587	    128.37562228	     89.65680358
      0.13333330	     -6.55535321	     -0.43739073	      1.26092018	      0.71090295	      0.89095208	      0.30804940	      7.90151144	     -3.31100665	      0.03651127	      1.32394547	      0.02310721	      5.34322943	     -6.69103656	     -7.41154915	      6.90779091	     -0.96125264	     -3.04353441	      1.26565760	      0.02208989	      4.57653577	     -7.22924084	     -7.41154915	      8.43364027	     -0.61563487	      4.19460905	     43.76798524	      5.52845159	     65.32445925	    125.08626820	     97.08438232	     37.82911808	      3.99488932	     68.85042954	    128.02015333	     85.68923530
      0.15000000	     -6.41565445	     -0.34708464	      1.46616570	      0.71128354	      0.88820429	      0.30807964	      7.80810900	     -3.43898779	      0.24398329	      1.35422112	      0.02363562	      5.29984400	     -6.71412378	     -7.45627797	      6.85631574	     -0.84046478	     -2.81447552	      1.31734971	      0.02299209	      4.37707675	     -7.34482134	     -7.45627797	      8.14147397	     -0.71511126	      4.05387540	     43.94346644	      5.41200640	     65.07771442	    124.95072287	     96.58424653	     38.28627135	      4.26249666	     68.88885571	    127.84528825	     84.46488905
      0.16666670	     -6.28421902	     -0.31594177	      1.60459684	      0.71544989	      0.89187923	      0.31035383	      7.59182659	     -3.42312977	      0.41112021	      1.31683760	      0.02298315	      5.27733407	     -6.56012435	     -7.45659507	      6.66982815	     -0.85821443	     -2.64371622	      1.33011719	      0.02321492	      4.28737645	     -7.26836542	     -7.45659507	      8.02043008	     -0.81649288	      4.06504376	     43.67278884	      5.35678292	     65.09978223	    124.86026555	     96.56163097	     37.83845862	      4.16131311	     69.11126336	    127.92144355	     84.45827457
      0.18333330	     -6.05237785	     -0.34546458	      1.66344156	      0.71551856	      0.89158474	      0.31039828	      7.25772964	     -3.34565161	      0.52903206	      1.29856330	      0.02266421	      5.27448676	     -6.34270961	     -7.47576064	      6.33979409	     -0.94639322	     -2.52583942	      1.31414478	      0.02293615	      4.27043428	     -7.29552425	     -7.47576064	      7.75274885	     -0.77342303	      4.02064325	     43.51351103	      5.40998278	     65.29423486	    124.74641637	     95.49294052	     37.74374000	      3.93666908	     69.36118970	    128.18422582	     83.06145319
      0.20000000	     -5.82433802	     -0.48196013	      1.75538819	      0.71581885	      0.88787313	      0.31026192	      6.94358309	     -3.16999484	      0.97382178	      1.34295472	      0.02343898	      5.12516792	     -6.78337374	     -7.48116560	      6.00374393	     -1.11620639	     -2.54417505	      1.35767489	      0.02369590	      4.50322239	     -7.19969352	     -7.48116560	      7.64082809	     -0.62170862	      3.81388637	     43.50422988	      5.40594344	     65.46229879	    124.82423572	     93.67907215	     37.79678606	      4.06435043	     69.58447229	    128.32628354	     81.67154478
      0.21666670	     -5.72868934	     -0.56478342	      1.85185101	      0.71535733	      0.89257630	      0.31031469	      6.82154502	     -3.06727969	      0.94067373	      1.47643478	      0.02576865	      5.02746496	     -6.78591955	     -7.48123431	      5.81381315	     -1.20755359	     -2.45725841	      1.37740973	      0.02404033	      4.55704218	     -7.18307245	     -7.48123431	      7.65686061	     -0.58552929	      3.82313617	     43.19213859	      5.49830991	     65.60133421	    124.87955626	     93.71203944	     37.60754017	      4.00515560	     69.63107648	    128.33159485	     81.69028006
      0.23333330	     -5.51568030	     -0.63169598	      1.87695831	      0.71539509	      0.89309209	      0.31016368	      6.49371764	     -2.98681466	      1.07790381	      1.42073537	      0.02479651	      4.98266121	     -6.78914308	     -7.48944580	      5.47276805	     -1.29718452	     -2.60314901	      1.36226990	      0.02377609	      4.78781109	     -6.94795288	     -7.48944580	      7.39904587	     -0.48510953	      3.76600421	     43.21224690	      5.48429350	     65.72513631	    124.95342780	     94.55513295	     37.36106668	      4.04527733	     69.62196964	    128.50626278	     82.15810702
      0.25000000	     -5.45953100	     -0.67958834	      1.88950409	      0.71497064	      0.89727145	      0.31029537	      6.45866245	     -2.92957079	      1.08639472	      1.49363446	      0.02606884	      4.83035109	     -6.76466872	     -7.48947943	      5.35914741	     -1.34368520	     -2.64958773	      1.34918214	      0.02354767	      4.74973839	     -6.94392490	     -7.48947943	      7.22110246	     -0.46202988	      3.79101153	     42.98133740	      5.33345021	     65.85992521	    124.95888558	     94.55069599	     37.03915524	      3.85223334	     69.73390349	    128.40473245	     82.15980551
      0.26666670	     -5.22119965	     -0.73579244	      1.86294606	      0.71547323	      0.89038475	      0.31005049	      6.19383019	     -2.87329917	      1.42159016	      1.42345711	      0.02484401	      4.63335363	     -7.22394565	     -7.49127321	      5.02427669	     -1.39552241	     -2.85369551	      1.28739900	      0.02246935	      4.86631113	     -6.80589927	     -7.49127321	      6.93530952	     -0.37773754	      3.79289555	     43.23757462	      5.28477114	     66.03308805	    125.20549271	     92.99800526	     37.07206626	      3.88487088	     69.54294289	    128.40965068	     81.26387409
      0.28333330	     -5.12104686	     -0.80209357	      1.89340979	      0.71539906	      0.89013616	      0.30978044	      6.11306073	     -2.83240630	      1.40097614	      1.44317627	      0.02518818	      4.56534621	     -7.28563124	     -7.49716714	      4.86443492	     -1.46225399	     -2.88473921	      1.24357656	      0.02170451	      4.86972331	     -6.75169273	     -7.49716714	      6.88723207	     -0.30452674	      3.78042666	     43.49901967	      5.20617739	     65.78432546	    125.48912359	     93.48569161	     37.14322992	      4.06475794	     69.38583877	    128.36050167	     81.70314133
      0.30000000	     -5.05745038	     -0.82920983	      1.83816822	      0.71556003	      0.88847354	      0.30969018	      6.07590012	     -2.81181410	      1.55908703	      1.50186297	      0.02621245	      4.49060270	     -7.69721358	     -7.49877628	      4.76913362	     -1.47669426	     -3.02361097	      1.23141809	      0.02149230	      5.04905877	     -6.72242813	     -7.49877628	      6.92041486	     -0.24894505	      3.92922871	     43.78470878	      5.17189202	     65.46541838	    125.76470549	     93.18107854	     37.45134704	      4.31155760	     69.18246580	    128.31842452	     81.75879159
